<svg width="60" height="102" fill="none" xmlns="http://www.w3.org/2000/svg"><g clip-path="url(#a)"><path fill="#F2EDDC" d="M6 10.5h48v81H6z"/><g clip-path="url(#b)"><path fill="#004789" d="M13.5 27h33v24h-33z"/><path d="m37.5 41.958-4.5 4.52V51h13.5l-9-9.042Z" fill="#008400"/><path d="M27 37.436 13.5 51H39L27 37.436Z" fill="#060"/><path d="m27 40.601-1.5-1.657 1.5-1.508 3.999 4.522-.75.753-2.499-2.863-.75.753Z" fill="#fff"/><path d="M25.5 30.014c0 .832-.672 1.507-1.5 1.507.828 0 1.5.675 1.5 1.507 0-.832.672-1.507 1.5-1.507-.828 0-1.5-.675-1.5-1.507Z" fill="#FFF500"/><path d="M16.5 30.014c0 .832-.672 1.507-1.5 1.507.828 0 1.5.675 1.5 1.507 0-.832.672-1.507 1.5-1.507-.828 0-1.5-.675-1.5-1.507Z" fill="#FF9264"/><path d="M21 34.535c0 .833-.672 1.507-1.5 1.507.828 0 1.5.675 1.5 1.508 0-.833.672-1.508 1.5-1.508-.828 0-1.5-.674-1.5-1.507ZM31.5 33.028c0 .833-.672 1.507-1.5 1.507.828 0 1.5.675 1.5 1.507 0-.832.672-1.507 1.5-1.507-.828 0-1.5-.674-1.5-1.507Z" fill="#fff"/><ellipse cx="38.25" cy="33.782" rx="3.75" ry="3.768" fill="#00095E"/><path d="M36.058 30.677a3.768 3.768 0 0 0-1.558 3.058 3.759 3.759 0 0 0 3.75 3.767 3.72 3.72 0 0 0 1.591-.355 6.03 6.03 0 0 1-3.783-6.47Z" fill="#fff"/></g><path d="M26.623 75.307c-.528.616-1.275 1.095-2.24 1.438-.965.337-2.035.505-3.21.505-1.232 0-2.315-.26-3.247-.781-.927-.527-1.644-1.29-2.153-2.286-.502-.997-.76-2.169-.773-3.515v-.943c0-1.384.238-2.581.714-3.591.483-1.016 1.174-1.79 2.074-2.324.907-.54 1.967-.81 3.18-.81 1.69 0 3.01.394 3.963 1.181.952.781 1.516 1.921 1.692 3.42h-2.856c-.13-.794-.421-1.375-.871-1.743-.444-.369-1.057-.553-1.84-.553-.998 0-1.758.365-2.28 1.096-.521.73-.785 1.816-.792 3.257v.886c0 1.454.284 2.553.851 3.296.568.743 1.4 1.114 2.495 1.114 1.103 0 1.889-.228 2.358-.685v-2.391h-2.67v-2.105h5.605v5.534ZM32.132 77.06h-2.935V63.19h2.935v13.87ZM43.433 71.392h-5.636v5.668h-2.935V63.19h9.275v2.315h-6.34v3.582h5.636v2.305Z" fill="#000"/><path fill="#F2EDDC" d="M18 93h25.5v6H18zM10.5 3h33v6h-33z"/><path fill-rule="evenodd" clip-rule="evenodd" d="M48 102c7.5 0 12-4.5 12-12V12c0-7.5-4.5-12-12-12H12C4.5 0 0 5.063 0 11.363V90c0 7.5 4.5 12 12 12h36ZM7.5 90h45V12h-45v78Zm6-82.5a1.5 1.5 0 1 0 0-3 1.5 1.5 0 0 0 0 3Zm6-1.5A1.5 1.5 0 0 1 21 4.5h19.5a1.5 1.5 0 0 1 0 3H21A1.5 1.5 0 0 1 19.5 6ZM21 94.5a1.5 1.5 0 0 0 0 3h19.5a1.5 1.5 0 0 0 0-3H21Z" fill="#000"/></g><defs><clipPath id="a"><path fill="#fff" d="M0 0h60v102H0z"/></clipPath><clipPath id="b"><path fill="#fff" transform="translate(13.5 27)" d="M0 0h33v24H0z"/></clipPath></defs></svg>