<svg width="1024" height="500" viewBox="0 0 1024 500" fill="none" xmlns="http://www.w3.org/2000/svg">
<g clip-path="url(#clip0)">
<rect width="1024" height="500" fill="white"/>
<path d="M600 0H1200V500H600V0Z" fill="#FF7A7A"/>
<path d="M600 166.667L650 0H600V166.667Z" fill="#FF9264"/>
<path d="M600 416.667V500H650L800 0H725L600 416.667Z" fill="#FF9264"/>
<path d="M875 0L725 500H800L950 0H875Z" fill="#FF9264"/>
<path d="M1025 0L875 500H950L1100 0H1025Z" fill="#FF9264"/>
<path d="M1175 0L1025 500H1100L1200 166.667V0H1175Z" fill="#FF9264"/>
<path d="M1200 416.667L1175 500H1200V416.667Z" fill="#FF9264"/>
<path d="M0 0H600V500H0V0Z" fill="#FF7A7A"/>
<path d="M0 166.667L50 0H0V166.667Z" fill="#FF9264"/>
<path d="M0 416.667V500H50L200 0H125L0 416.667Z" fill="#FF9264"/>
<path d="M275 0L125 500H200L350 0H275Z" fill="#FF9264"/>
<path d="M425 0L275 500H350L500 0H425Z" fill="#FF9264"/>
<path d="M575 0L425 500H500L600 166.667V0H575Z" fill="#FF9264"/>
<path d="M600 416.667L575 500H600V416.667Z" fill="#FF9264"/>
<path d="M284.75 121.609H139.25V372.565H284.75V121.609Z" fill="white"/>
<path fill-rule="evenodd" clip-rule="evenodd" d="M309 371.479C309 396.575 294.45 411.536 269.23 412.018C256.458 412.018 243.687 412.072 230.915 412.126C205.372 412.233 179.828 412.34 154.285 412.018C130.52 412.018 115.485 397.058 115 373.892V119.558C115 99.288 131.49 83.8446 153.315 83.362C191.63 82.8793 229.945 82.8793 268.26 83.362C293.965 83.8446 308.515 98.8054 309 124.384V371.479ZM284.75 372.565H139.25V121.609H284.75V372.565Z" fill="black"/>
<ellipse cx="158.65" cy="102.304" rx="4.85" ry="4.82609" fill="white"/>
<rect x="178.05" y="97.4783" width="72.75" height="9.65217" rx="1" fill="white"/>
<rect x="178.05" y="387.043" width="72.75" height="9.65216" rx="1" fill="white"/>
<g clip-path="url(#clip1)">
<rect x="158.65" y="169.87" width="106.7" height="76.8554" fill="#69B7FF"/>
<path d="M236.25 217.768L221.7 232.247V246.725H265.35L236.25 217.768Z" fill="#67E863"/>
<path d="M202.3 203.29L158.65 246.725H241.1L202.3 203.29Z" fill="#008400"/>
<path d="M202.3 213.425L197.45 208.116L202.3 203.29L215.23 217.768L212.808 220.182L204.725 211.012L202.3 213.425Z" fill="white"/>
<ellipse cx="238.675" cy="191.587" rx="12.125" ry="12.0652" fill="#FFF500"/>
</g>
<path d="M203.503 320.449C201.841 322.43 199.491 323.972 196.453 325.075C193.415 326.157 190.049 326.699 186.355 326.699C182.476 326.699 179.069 325.861 176.134 324.187C173.22 322.491 170.962 320.041 169.361 316.834C167.781 313.628 166.97 309.86 166.929 305.53V302.497C166.929 298.045 167.678 294.196 169.176 290.948C170.695 287.681 172.871 285.189 175.703 283.473C178.556 281.738 181.891 280.87 185.709 280.87C191.024 280.87 195.181 282.136 198.177 284.668C201.174 287.18 202.949 290.846 203.503 295.666H194.513C194.103 293.113 193.19 291.244 191.774 290.06C190.378 288.875 188.449 288.283 185.986 288.283C182.846 288.283 180.454 289.457 178.813 291.806C177.171 294.155 176.339 297.647 176.319 302.283V305.132C176.319 309.809 177.212 313.342 178.997 315.731C180.783 318.121 183.4 319.316 186.848 319.316C190.316 319.316 192.789 318.58 194.267 317.11V309.421H185.863V302.651H203.503V320.449Z" fill="black"/>
<path d="M220.836 326.086H211.6V281.482H220.836V326.086Z" fill="black"/>
<path d="M256.394 307.858H238.661V326.086H229.425V281.482H258.61V288.926H238.661V300.445H256.394V307.858Z" fill="black"/>
<path d="M492.094 214.375C489.562 217.406 485.984 219.766 481.359 221.453C476.734 223.109 471.609 223.938 465.984 223.938C460.078 223.938 454.891 222.656 450.422 220.094C445.984 217.5 442.547 213.75 440.109 208.844C437.703 203.938 436.469 198.172 436.406 191.547V186.906C436.406 180.094 437.547 174.203 439.828 169.234C442.141 164.234 445.453 160.422 449.766 157.797C454.109 155.141 459.188 153.812 465 153.812C473.094 153.812 479.422 155.75 483.984 159.625C488.547 163.469 491.25 169.078 492.094 176.453H478.406C477.781 172.547 476.391 169.688 474.234 167.875C472.109 166.062 469.172 165.156 465.422 165.156C460.641 165.156 457 166.953 454.5 170.547C452 174.141 450.734 179.484 450.703 186.578V190.938C450.703 198.094 452.062 203.5 454.781 207.156C457.5 210.812 461.484 212.641 466.734 212.641C472.016 212.641 475.781 211.516 478.031 209.266V197.5H465.234V187.141H492.094V214.375Z" fill="black"/>
<path d="M518.484 223H504.422V154.75H518.484V223Z" fill="black"/>
<path d="M572.625 195.109H545.625V223H531.562V154.75H576V166.141H545.625V183.766H572.625V195.109Z" fill="black"/>
<path d="M491.25 316.312L500.438 267.75H514.453L499.312 336H485.156L474.047 290.344L462.938 336H448.781L433.641 267.75H447.656L456.891 316.219L468.141 267.75H480.047L491.25 316.312Z" fill="black"/>
<path d="M549 336C548.375 334.781 547.922 333.266 547.641 331.453C544.359 335.109 540.094 336.938 534.844 336.938C529.875 336.938 525.75 335.5 522.469 332.625C519.219 329.75 517.594 326.125 517.594 321.75C517.594 316.375 519.578 312.25 523.547 309.375C527.547 306.5 533.312 305.047 540.844 305.016H547.078V302.109C547.078 299.766 546.469 297.891 545.25 296.484C544.062 295.078 542.172 294.375 539.578 294.375C537.297 294.375 535.5 294.922 534.188 296.016C532.906 297.109 532.266 298.609 532.266 300.516H518.719C518.719 297.578 519.625 294.859 521.438 292.359C523.25 289.859 525.812 287.906 529.125 286.5C532.438 285.062 536.156 284.344 540.281 284.344C546.531 284.344 551.484 285.922 555.141 289.078C558.828 292.203 560.672 296.609 560.672 302.297V324.281C560.703 329.094 561.375 332.734 562.688 335.203V336H549ZM537.797 326.578C539.797 326.578 541.641 326.141 543.328 325.266C545.016 324.359 546.266 323.156 547.078 321.656V312.938H542.016C535.234 312.938 531.625 315.281 531.188 319.969L531.141 320.766C531.141 322.453 531.734 323.844 532.922 324.938C534.109 326.031 535.734 326.578 537.797 326.578Z" fill="black"/>
<path d="M585.375 336H571.781V264H585.375V336Z" fill="black"/>
<path d="M610.875 336H597.281V264H610.875V336Z" fill="black"/>
<path d="M667.734 311.109C667.734 318.922 665.953 325.188 662.391 329.906C658.859 334.594 654.078 336.938 648.047 336.938C642.922 336.938 638.781 335.156 635.625 331.594V355.5H622.078V285.281H634.641L635.109 290.25C638.391 286.312 642.672 284.344 647.953 284.344C654.203 284.344 659.062 286.656 662.531 291.281C666 295.906 667.734 302.281 667.734 310.406V311.109ZM654.188 310.125C654.188 305.406 653.344 301.766 651.656 299.203C650 296.641 647.578 295.359 644.391 295.359C640.141 295.359 637.219 296.984 635.625 300.234V321C637.281 324.344 640.234 326.016 644.484 326.016C650.953 326.016 654.188 320.719 654.188 310.125Z" fill="black"/>
<path d="M705.562 336C704.938 334.781 704.484 333.266 704.203 331.453C700.922 335.109 696.656 336.938 691.406 336.938C686.438 336.938 682.312 335.5 679.031 332.625C675.781 329.75 674.156 326.125 674.156 321.75C674.156 316.375 676.141 312.25 680.109 309.375C684.109 306.5 689.875 305.047 697.406 305.016H703.641V302.109C703.641 299.766 703.031 297.891 701.812 296.484C700.625 295.078 698.734 294.375 696.141 294.375C693.859 294.375 692.062 294.922 690.75 296.016C689.469 297.109 688.828 298.609 688.828 300.516H675.281C675.281 297.578 676.188 294.859 678 292.359C679.812 289.859 682.375 287.906 685.688 286.5C689 285.062 692.719 284.344 696.844 284.344C703.094 284.344 708.047 285.922 711.703 289.078C715.391 292.203 717.234 296.609 717.234 302.297V324.281C717.266 329.094 717.938 332.734 719.25 335.203V336H705.562ZM694.359 326.578C696.359 326.578 698.203 326.141 699.891 325.266C701.578 324.359 702.828 323.156 703.641 321.656V312.938H698.578C691.797 312.938 688.188 315.281 687.75 319.969L687.703 320.766C687.703 322.453 688.297 323.844 689.484 324.938C690.672 326.031 692.297 326.578 694.359 326.578Z" fill="black"/>
<path d="M773.297 311.109C773.297 318.922 771.516 325.188 767.953 329.906C764.422 334.594 759.641 336.938 753.609 336.938C748.484 336.938 744.344 335.156 741.188 331.594V355.5H727.641V285.281H740.203L740.672 290.25C743.953 286.312 748.234 284.344 753.516 284.344C759.766 284.344 764.625 286.656 768.094 291.281C771.562 295.906 773.297 302.281 773.297 310.406V311.109ZM759.75 310.125C759.75 305.406 758.906 301.766 757.219 299.203C755.562 296.641 753.141 295.359 749.953 295.359C745.703 295.359 742.781 296.984 741.188 300.234V321C742.844 324.344 745.797 326.016 750.047 326.016C756.516 326.016 759.75 320.719 759.75 310.125Z" fill="black"/>
<path d="M805.078 336.938C797.641 336.938 791.578 334.656 786.891 330.094C782.234 325.531 779.906 319.453 779.906 311.859V310.547C779.906 305.453 780.891 300.906 782.859 296.906C784.828 292.875 787.609 289.781 791.203 287.625C794.828 285.438 798.953 284.344 803.578 284.344C810.516 284.344 815.969 286.531 819.938 290.906C823.938 295.281 825.938 301.484 825.938 309.516V315.047H793.641C794.078 318.359 795.391 321.016 797.578 323.016C799.797 325.016 802.594 326.016 805.969 326.016C811.188 326.016 815.266 324.125 818.203 320.344L824.859 327.797C822.828 330.672 820.078 332.922 816.609 334.547C813.141 336.141 809.297 336.938 805.078 336.938ZM803.531 295.312C800.844 295.312 798.656 296.219 796.969 298.031C795.312 299.844 794.25 302.438 793.781 305.812H812.625V304.734C812.562 301.734 811.75 299.422 810.188 297.797C808.625 296.141 806.406 295.312 803.531 295.312Z" fill="black"/>
<path d="M862.172 297.984C860.328 297.734 858.703 297.609 857.297 297.609C852.172 297.609 848.812 299.344 847.219 302.812V336H833.672V285.281H846.469L846.844 291.328C849.562 286.672 853.328 284.344 858.141 284.344C859.641 284.344 861.047 284.547 862.359 284.953L862.172 297.984Z" fill="black"/>
</g>
<defs>
<clipPath id="clip0">
<rect width="1024" height="500" fill="white"/>
</clipPath>
<clipPath id="clip1">
<rect x="158.65" y="169.87" width="106.7" height="76.8554" fill="white"/>
</clipPath>
</defs>
</svg>
