<svg width="1024" height="500" viewBox="0 0 1024 500" fill="none" xmlns="http://www.w3.org/2000/svg">
<g clip-path="url(#clip0)">
<rect width="1024" height="500" fill="white"/>
<rect width="600" height="500" transform="translate(600)" fill="#F2E1C2"/>
<path d="M600 166.667L650 0H600V166.667Z" fill="#F2EDDC"/>
<path d="M600 416.667V500H650L800 0H725L600 416.667Z" fill="#F2EDDC"/>
<path d="M875 0L725 500H800L950 0H875Z" fill="#F2EDDC"/>
<path d="M1025 0L875 500H950L1100 0H1025Z" fill="#F2EDDC"/>
<path d="M1175 0L1025 500H1100L1200 166.667V0H1175Z" fill="#F2EDDC"/>
<path d="M1200 416.667L1175 500H1200V416.667Z" fill="#F2EDDC"/>
<rect width="600" height="500" fill="#F2E1C2"/>
<path d="M0 166.667L50 0H0V166.667Z" fill="#F2EDDC"/>
<path d="M0 416.667V500H50L200 0H125L0 416.667Z" fill="#F2EDDC"/>
<path d="M275 0L125 500H200L350 0H275Z" fill="#F2EDDC"/>
<path d="M425 0L275 500H350L500 0H425Z" fill="#F2EDDC"/>
<path d="M575 0L425 500H500L600 166.667V0H575Z" fill="#F2EDDC"/>
<path d="M600 416.667L575 500H600V416.667Z" fill="#F2EDDC"/>
<path d="M284.75 121.609H139.25V372.565H284.75V121.609Z" fill="white"/>
<path fill-rule="evenodd" clip-rule="evenodd" d="M309 371.479C309 396.575 294.45 411.536 269.23 412.018C256.458 412.018 243.687 412.072 230.915 412.126C205.372 412.233 179.828 412.34 154.285 412.018C130.52 412.018 115.485 397.058 115 373.892V119.558C115 99.288 131.49 83.8446 153.315 83.362C191.63 82.8793 229.945 82.8793 268.26 83.362C293.965 83.8446 308.515 98.8054 309 124.384V371.479ZM284.75 372.565H139.25V121.609H284.75V372.565Z" fill="black"/>
<ellipse cx="158.65" cy="102.304" rx="4.85" ry="4.82609" fill="white"/>
<rect x="178.05" y="97.4783" width="72.75" height="9.65217" rx="1" fill="white"/>
<rect x="178.05" y="387.043" width="72.75" height="9.65216" rx="1" fill="white"/>
<g clip-path="url(#clip1)">
<rect width="106.7" height="76.8554" transform="translate(158.65 169.87)" fill="#69B7FF"/>
<path d="M236.25 217.768L221.7 232.247V246.725H265.35L236.25 217.768Z" fill="#67E863"/>
<path d="M202.3 203.29L158.65 246.725H241.1L202.3 203.29Z" fill="#008400"/>
<path d="M202.3 213.425L197.45 208.116L202.3 203.29L215.23 217.768L212.808 220.182L204.725 211.012L202.3 213.425Z" fill="white"/>
<ellipse cx="238.675" cy="191.587" rx="12.125" ry="12.0652" fill="#FFF500"/>
</g>
<path d="M203.503 320.449C201.841 322.43 199.491 323.972 196.453 325.075C193.415 326.157 190.049 326.699 186.355 326.699C182.476 326.699 179.069 325.861 176.134 324.187C173.22 322.491 170.962 320.041 169.361 316.834C167.781 313.628 166.97 309.86 166.929 305.53V302.497C166.929 298.045 167.678 294.196 169.176 290.948C170.695 287.681 172.871 285.189 175.703 283.473C178.556 281.738 181.891 280.87 185.709 280.87C191.024 280.87 195.181 282.136 198.177 284.668C201.174 287.18 202.949 290.846 203.503 295.666H194.513C194.103 293.113 193.19 291.244 191.774 290.06C190.378 288.875 188.449 288.283 185.986 288.283C182.846 288.283 180.454 289.457 178.813 291.806C177.171 294.155 176.339 297.647 176.319 302.283V305.132C176.319 309.809 177.212 313.342 178.997 315.731C180.783 318.121 183.4 319.316 186.848 319.316C190.316 319.316 192.789 318.58 194.267 317.11V309.421H185.863V302.651H203.503V320.449Z" fill="black"/>
<path d="M220.836 326.086H211.6V281.482H220.836V326.086Z" fill="black"/>
<path d="M256.394 307.858H238.661V326.086H229.425V281.482H258.61V288.926H238.661V300.445H256.394V307.858Z" fill="black"/>
<path d="M493.094 213.375C490.562 216.406 486.984 218.766 482.359 220.453C477.734 222.109 472.609 222.938 466.984 222.938C461.078 222.938 455.891 221.656 451.422 219.094C446.984 216.5 443.547 212.75 441.109 207.844C438.703 202.938 437.469 197.172 437.406 190.547V185.906C437.406 179.094 438.547 173.203 440.828 168.234C443.141 163.234 446.453 159.422 450.766 156.797C455.109 154.141 460.188 152.812 466 152.812C474.094 152.812 480.422 154.75 484.984 158.625C489.547 162.469 492.25 168.078 493.094 175.453H479.406C478.781 171.547 477.391 168.688 475.234 166.875C473.109 165.062 470.172 164.156 466.422 164.156C461.641 164.156 458 165.953 455.5 169.547C453 173.141 451.734 178.484 451.703 185.578V189.938C451.703 197.094 453.062 202.5 455.781 206.156C458.5 209.812 462.484 211.641 467.734 211.641C473.016 211.641 476.781 210.516 479.031 208.266V196.5H466.234V186.141H493.094V213.375ZM519.484 222H505.422V153.75H519.484V222ZM573.625 194.109H546.625V222H532.562V153.75H577V165.141H546.625V182.766H573.625V194.109ZM623.125 210.703H652.984V222H609.062V153.75H623.125V210.703ZM674.5 222H660.906V171.281H674.5V222ZM660.109 158.156C660.109 156.125 660.781 154.453 662.125 153.141C663.5 151.828 665.359 151.172 667.703 151.172C670.016 151.172 671.859 151.828 673.234 153.141C674.609 154.453 675.297 156.125 675.297 158.156C675.297 160.219 674.594 161.906 673.188 163.219C671.812 164.531 669.984 165.188 667.703 165.188C665.422 165.188 663.578 164.531 662.172 163.219C660.797 161.906 660.109 160.219 660.109 158.156ZM704.688 205.453L714.109 171.281H728.266L711.156 222H698.219L681.109 171.281H695.266L704.688 205.453ZM756.953 222.938C749.516 222.938 743.453 220.656 738.766 216.094C734.109 211.531 731.781 205.453 731.781 197.859V196.547C731.781 191.453 732.766 186.906 734.734 182.906C736.703 178.875 739.484 175.781 743.078 173.625C746.703 171.438 750.828 170.344 755.453 170.344C762.391 170.344 767.844 172.531 771.812 176.906C775.812 181.281 777.812 187.484 777.812 195.516V201.047H745.516C745.953 204.359 747.266 207.016 749.453 209.016C751.672 211.016 754.469 212.016 757.844 212.016C763.062 212.016 767.141 210.125 770.078 206.344L776.734 213.797C774.703 216.672 771.953 218.922 768.484 220.547C765.016 222.141 761.172 222.938 756.953 222.938ZM755.406 181.312C752.719 181.312 750.531 182.219 748.844 184.031C747.188 185.844 746.125 188.438 745.656 191.812H764.5V190.734C764.438 187.734 763.625 185.422 762.062 183.797C760.5 182.141 758.281 181.312 755.406 181.312ZM492.25 315.312L501.438 266.75H515.453L500.312 335H486.156L475.047 289.344L463.938 335H449.781L434.641 266.75H448.656L457.891 315.219L469.141 266.75H481.047L492.25 315.312ZM550 335C549.375 333.781 548.922 332.266 548.641 330.453C545.359 334.109 541.094 335.938 535.844 335.938C530.875 335.938 526.75 334.5 523.469 331.625C520.219 328.75 518.594 325.125 518.594 320.75C518.594 315.375 520.578 311.25 524.547 308.375C528.547 305.5 534.312 304.047 541.844 304.016H548.078V301.109C548.078 298.766 547.469 296.891 546.25 295.484C545.062 294.078 543.172 293.375 540.578 293.375C538.297 293.375 536.5 293.922 535.188 295.016C533.906 296.109 533.266 297.609 533.266 299.516H519.719C519.719 296.578 520.625 293.859 522.438 291.359C524.25 288.859 526.812 286.906 530.125 285.5C533.438 284.062 537.156 283.344 541.281 283.344C547.531 283.344 552.484 284.922 556.141 288.078C559.828 291.203 561.672 295.609 561.672 301.297V323.281C561.703 328.094 562.375 331.734 563.688 334.203V335H550ZM538.797 325.578C540.797 325.578 542.641 325.141 544.328 324.266C546.016 323.359 547.266 322.156 548.078 320.656V311.938H543.016C536.234 311.938 532.625 314.281 532.188 318.969L532.141 319.766C532.141 321.453 532.734 322.844 533.922 323.938C535.109 325.031 536.734 325.578 538.797 325.578ZM586.375 335H572.781V263H586.375V335ZM611.875 335H598.281V263H611.875V335ZM668.734 310.109C668.734 317.922 666.953 324.188 663.391 328.906C659.859 333.594 655.078 335.938 649.047 335.938C643.922 335.938 639.781 334.156 636.625 330.594V354.5H623.078V284.281H635.641L636.109 289.25C639.391 285.312 643.672 283.344 648.953 283.344C655.203 283.344 660.062 285.656 663.531 290.281C667 294.906 668.734 301.281 668.734 309.406V310.109ZM655.188 309.125C655.188 304.406 654.344 300.766 652.656 298.203C651 295.641 648.578 294.359 645.391 294.359C641.141 294.359 638.219 295.984 636.625 299.234V320C638.281 323.344 641.234 325.016 645.484 325.016C651.953 325.016 655.188 319.719 655.188 309.125ZM706.562 335C705.938 333.781 705.484 332.266 705.203 330.453C701.922 334.109 697.656 335.938 692.406 335.938C687.438 335.938 683.312 334.5 680.031 331.625C676.781 328.75 675.156 325.125 675.156 320.75C675.156 315.375 677.141 311.25 681.109 308.375C685.109 305.5 690.875 304.047 698.406 304.016H704.641V301.109C704.641 298.766 704.031 296.891 702.812 295.484C701.625 294.078 699.734 293.375 697.141 293.375C694.859 293.375 693.062 293.922 691.75 295.016C690.469 296.109 689.828 297.609 689.828 299.516H676.281C676.281 296.578 677.188 293.859 679 291.359C680.812 288.859 683.375 286.906 686.688 285.5C690 284.062 693.719 283.344 697.844 283.344C704.094 283.344 709.047 284.922 712.703 288.078C716.391 291.203 718.234 295.609 718.234 301.297V323.281C718.266 328.094 718.938 331.734 720.25 334.203V335H706.562ZM695.359 325.578C697.359 325.578 699.203 325.141 700.891 324.266C702.578 323.359 703.828 322.156 704.641 320.656V311.938H699.578C692.797 311.938 689.188 314.281 688.75 318.969L688.703 319.766C688.703 321.453 689.297 322.844 690.484 323.938C691.672 325.031 693.297 325.578 695.359 325.578ZM774.297 310.109C774.297 317.922 772.516 324.188 768.953 328.906C765.422 333.594 760.641 335.938 754.609 335.938C749.484 335.938 745.344 334.156 742.188 330.594V354.5H728.641V284.281H741.203L741.672 289.25C744.953 285.312 749.234 283.344 754.516 283.344C760.766 283.344 765.625 285.656 769.094 290.281C772.562 294.906 774.297 301.281 774.297 309.406V310.109ZM760.75 309.125C760.75 304.406 759.906 300.766 758.219 298.203C756.562 295.641 754.141 294.359 750.953 294.359C746.703 294.359 743.781 295.984 742.188 299.234V320C743.844 323.344 746.797 325.016 751.047 325.016C757.516 325.016 760.75 319.719 760.75 309.125ZM806.078 335.938C798.641 335.938 792.578 333.656 787.891 329.094C783.234 324.531 780.906 318.453 780.906 310.859V309.547C780.906 304.453 781.891 299.906 783.859 295.906C785.828 291.875 788.609 288.781 792.203 286.625C795.828 284.438 799.953 283.344 804.578 283.344C811.516 283.344 816.969 285.531 820.938 289.906C824.938 294.281 826.938 300.484 826.938 308.516V314.047H794.641C795.078 317.359 796.391 320.016 798.578 322.016C800.797 324.016 803.594 325.016 806.969 325.016C812.188 325.016 816.266 323.125 819.203 319.344L825.859 326.797C823.828 329.672 821.078 331.922 817.609 333.547C814.141 335.141 810.297 335.938 806.078 335.938ZM804.531 294.312C801.844 294.312 799.656 295.219 797.969 297.031C796.312 298.844 795.25 301.438 794.781 304.812H813.625V303.734C813.562 300.734 812.75 298.422 811.188 296.797C809.625 295.141 807.406 294.312 804.531 294.312ZM863.172 296.984C861.328 296.734 859.703 296.609 858.297 296.609C853.172 296.609 849.812 298.344 848.219 301.812V335H834.672V284.281H847.469L847.844 290.328C850.562 285.672 854.328 283.344 859.141 283.344C860.641 283.344 862.047 283.547 863.359 283.953L863.172 296.984Z" fill="black"/>
</g>
<defs>
<clipPath id="clip0">
<rect width="1024" height="500" fill="white"/>
</clipPath>
<clipPath id="clip1">
<rect width="106.7" height="76.8554" fill="white" transform="translate(158.65 169.87)"/>
</clipPath>
</defs>
</svg>
