<svg width="512" height="512" viewBox="0 0 512 512" fill="none" xmlns="http://www.w3.org/2000/svg">
<g clip-path="url(#clip0)">
<g clip-path="url(#clip1)">
<path d="M0 0H614.4V512H0V0Z" fill="#FF7A7A"/>
<path d="M0 170.667L51.2 0H0V170.667Z" fill="#FF9264"/>
<path d="M0 426.667V512H51.2L204.8 0H128L0 426.667Z" fill="#FF9264"/>
<path d="M281.6 0L128 512H204.8L358.4 0H281.6Z" fill="#FF9264"/>
<path d="M435.2 0L281.6 512H358.4L512 0H435.2Z" fill="#FF9264"/>
<path d="M588.8 0L435.2 512H512L614.4 170.667V0H588.8Z" fill="#FF9264"/>
<path d="M614.4 426.667L588.8 512H614.4V426.667Z" fill="#FF9264"/>
</g>
<g clip-path="url(#clip2)">
<path d="M312.296 154.548H194.963V357.926H312.296V154.548Z" fill="white"/>
<path fill-rule="evenodd" clip-rule="evenodd" d="M331.852 357.046C331.852 377.384 320.119 389.508 299.781 389.899C289.481 389.899 279.182 389.943 268.883 389.986C248.284 390.073 227.686 390.16 207.087 389.899C187.923 389.899 175.799 377.775 175.407 359.001V152.886C175.407 136.459 188.705 123.944 206.305 123.553C237.203 123.161 268.101 123.161 298.998 123.553C319.727 123.944 331.461 136.068 331.852 156.797V357.046ZM312.296 357.926H194.963V154.548H312.296V357.926Z" fill="black"/>
<ellipse cx="210.607" cy="138.904" rx="3.91111" ry="3.91111" fill="white"/>
<rect x="226.252" y="134.993" width="58.6667" height="7.82222" rx="1" fill="white"/>
<rect x="226.252" y="369.659" width="58.6667" height="7.8222" rx="1" fill="white"/>
<g clip-path="url(#clip3)">
<rect x="210.607" y="193.659" width="86.0444" height="62.2845" fill="#69B7FF"/>
<path d="M273.185 232.477L261.452 244.21V255.944H296.652L273.185 232.477Z" fill="#67E863"/>
<path d="M245.807 220.744L210.607 255.944H277.096L245.807 220.744Z" fill="#008400"/>
<path d="M245.807 228.957L241.896 224.655L245.807 220.744L256.234 232.477L254.281 234.433L247.763 227.002L245.807 228.957Z" fill="white"/>
<ellipse cx="275.141" cy="211.259" rx="9.77778" ry="9.77778" fill="#FFF500"/>
</g>
<path d="M246.778 315.691C245.437 317.296 243.542 318.546 241.092 319.439C238.643 320.317 235.928 320.755 232.949 320.755C229.821 320.755 227.074 320.077 224.707 318.719C222.357 317.346 220.536 315.36 219.245 312.761C217.971 310.163 217.317 307.109 217.284 303.6V301.142C217.284 297.534 217.888 294.414 219.096 291.783C220.321 289.135 222.075 287.115 224.359 285.725C226.66 284.318 229.349 283.615 232.428 283.615C236.715 283.615 240.066 284.641 242.483 286.693C244.899 288.729 246.331 291.7 246.778 295.606H239.528C239.197 293.537 238.461 292.023 237.319 291.063C236.193 290.103 234.637 289.623 232.651 289.623C230.119 289.623 228.191 290.575 226.867 292.478C225.543 294.381 224.872 297.211 224.856 300.969V303.277C224.856 307.068 225.576 309.931 227.016 311.867C228.456 313.804 230.566 314.772 233.346 314.772C236.144 314.772 238.138 314.176 239.33 312.984V306.753H232.552V301.266H246.778V315.691Z" fill="black"/>
<path d="M260.755 320.259H253.307V284.111H260.755V320.259Z" fill="black"/>
<path d="M289.429 305.487H275.129V320.259H267.681V284.111H291.217V290.144H275.129V299.479H289.429V305.487Z" fill="black"/>
</g>
</g>
<defs>
<clipPath id="clip0">
<path d="M0 0H512V512H0V0Z" fill="white"/>
</clipPath>
<clipPath id="clip1">
<path d="M0 0H614.4V512H0V0Z" fill="white"/>
</clipPath>
<clipPath id="clip2">
<path d="M175.407 123.259H331.852V393.126H175.407V123.259Z" fill="white"/>
</clipPath>
<clipPath id="clip3">
<rect x="210.607" y="193.659" width="86.0444" height="62.2845" fill="white"/>
</clipPath>
</defs>
</svg>
