<svg width="108" height="108" viewBox="0 0 108 108" fill="none" xmlns="http://www.w3.org/2000/svg">
<g clip-path="url(#clip0)">
<rect width="108" height="108" fill="#FF7A7A"/>
<path fill-rule="evenodd" clip-rule="evenodd" d="M44.3633 -3.99999L-0.636707 116L-10 112.489L35 -7.51122L44.3633 -3.99999Z" fill="#FF9264"/>
<path fill-rule="evenodd" clip-rule="evenodd" d="M69.3633 -3.99999L24.3633 116L15 112.489L60 -7.51122L69.3633 -3.99999Z" fill="#FF9264"/>
<path fill-rule="evenodd" clip-rule="evenodd" d="M94.3633 -3.99999L49.3633 116L40 112.489L85 -7.51122L94.3633 -3.99999Z" fill="#FF9264"/>
<path fill-rule="evenodd" clip-rule="evenodd" d="M119.363 -3.99999L74.3633 116L65 112.489L110 -7.51122L119.363 -3.99999Z" fill="#FF9264"/>
<path fill-rule="evenodd" clip-rule="evenodd" d="M144.363 -3.99999L99.3633 116L90 112.489L135 -7.51122L144.363 -3.99999Z" fill="#FF9264"/>
<path fill-rule="evenodd" clip-rule="evenodd" d="M19.3633 -4L-25.6367 116L-35 112.489L10 -7.51123L19.3633 -4Z" fill="#FF9264"/>
</g>
<defs>
<clipPath id="clip0">
<rect width="108" height="108" fill="white"/>
</clipPath>
</defs>
</svg>
