<svg width="108" height="108" viewBox="0 0 108 108" fill="none" xmlns="http://www.w3.org/2000/svg">
<g clip-path="url(#clip0)">
<g clip-path="url(#clip1)">
<path d="M0 0H129.6V108H0V0Z" fill="#FF7A7A"/>
<path d="M108 0L75.6 108H91.8L124.2 0H108Z" fill="#FF9264"/>
<path d="M75.6 0L43.2 108H59.4L91.8 0H75.6Z" fill="#FF9264"/>
<path d="M43.2 0L10.8 108H27.54L59.4 0H43.2Z" fill="#FF9264"/>
<path d="M10.8 0L-21.6 108H-4.86001L27 0H10.8Z" fill="#FF9264"/>
</g>
<g clip-path="url(#clip2)">
<path d="M66.875 32.6H42.125V75.5H66.875V32.6Z" fill="white"/>
<path fill-rule="evenodd" clip-rule="evenodd" d="M71 75.3144C71 79.6044 68.525 82.1619 64.235 82.2444C62.0625 82.2444 59.89 82.2535 57.7175 82.2627C53.3725 82.281 49.0275 82.2994 44.6825 82.2444C40.64 82.2444 38.0825 79.6869 38 75.7269V32.2494C38 28.7844 40.805 26.1444 44.5175 26.0619C51.035 25.9794 57.5525 25.9794 64.07 26.0619C68.4425 26.1444 70.9175 28.7019 71 33.0744V75.3144ZM66.875 75.5H42.125V32.6H66.875V75.5Z" fill="black"/>
<circle cx="45.425" cy="29.3" r="0.825" fill="white"/>
<rect x="48.725" y="28.475" width="12.375" height="1.65" rx="0.825" fill="white"/>
<rect x="48.725" y="77.975" width="12.375" height="1.65" rx="0.824999" fill="white"/>
<rect x="45.425" y="40.85" width="18.15" height="13.1381" fill="#69B7FF"/>
<path d="M58.625 49.0381L56.15 51.5131V53.9881H63.575L58.625 49.0381Z" fill="#67E863"/>
<path d="M52.85 46.5631L45.425 53.9881H59.45L52.85 46.5631Z" fill="#008400"/>
<path d="M52.85 48.2956L52.025 47.3881L52.85 46.5631L55.0495 49.0381L54.6375 49.4506L53.2625 47.8831L52.85 48.2956Z" fill="white"/>
<ellipse cx="57.3875" cy="45.2586" rx="2.0625" ry="2.0625" fill="#FFF500"/>
<path d="M53.0546 66.591C52.7718 66.9296 52.3721 67.1932 51.8554 67.3817C51.3387 67.5668 50.7661 67.6593 50.1377 67.6593C49.4779 67.6593 48.8983 67.5162 48.3991 67.2299C47.9034 66.9401 47.5193 66.5212 47.247 65.973C46.9782 65.4249 46.8403 64.7808 46.8333 64.0406V63.5222C46.8333 62.7611 46.9607 62.103 47.2156 61.5479C47.4739 60.9893 47.844 60.5634 48.3258 60.2701C48.8111 59.9734 49.3784 59.825 50.0278 59.825C50.932 59.825 51.6389 60.0415 52.1487 60.4744C52.6584 60.9038 52.9604 61.5305 53.0546 62.3544H51.5255C51.4557 61.918 51.3003 61.5985 51.0594 61.3961C50.822 61.1936 50.4938 61.0923 50.0749 61.0923C49.5407 61.0923 49.134 61.2931 48.8547 61.6946C48.5754 62.096 48.434 62.693 48.4305 63.4855V63.9726C48.4305 64.7721 48.5824 65.376 48.8861 65.7845C49.1899 66.193 49.635 66.3972 50.2215 66.3972C50.8115 66.3972 51.2322 66.2715 51.4836 66.0202V64.7057H50.0539V63.5484H53.0546V66.591Z" fill="black"/>
<path d="M56.003 67.5546H54.4319V59.9297H56.003V67.5546Z" fill="black"/>
<path d="M62.0515 64.4386H59.0351V67.5546H57.464V59.9297H62.4285V61.2023H59.0351V63.1713H62.0515V64.4386Z" fill="black"/>
</g>
</g>
<defs>
<clipPath id="clip0">
<rect width="108" height="108" fill="white"/>
</clipPath>
<clipPath id="clip1">
<path d="M0 0H129.6V108H0V0Z" fill="white"/>
</clipPath>
<clipPath id="clip2">
<path d="M38 26H71V82.925H38V26Z" fill="white"/>
</clipPath>
</defs>
</svg>
