<svg width="108" height="108" viewBox="0 0 108 108" fill="none" xmlns="http://www.w3.org/2000/svg">
<g clip-path="url(#clip0)">
<path d="M65.875 32.6H41.125V75.5H65.875V32.6Z" fill="white"/>
<path fill-rule="evenodd" clip-rule="evenodd" d="M70 75.3144C70 79.6044 67.525 82.1619 63.235 82.2444C61.0625 82.2444 58.89 82.2535 56.7175 82.2627C52.3725 82.281 48.0275 82.2994 43.6825 82.2444C39.64 82.2444 37.0825 79.6869 37 75.7269V32.2494C37 28.7844 39.805 26.1444 43.5175 26.0619C50.035 25.9794 56.5525 25.9794 63.07 26.0619C67.4425 26.1444 69.9175 28.7019 70 33.0744V75.3144ZM65.875 75.5H41.125V32.6H65.875V75.5Z" fill="black"/>
<circle cx="44.425" cy="29.3" r="0.825" fill="white"/>
<rect x="47.725" y="28.475" width="12.375" height="1.65" rx="0.825" fill="white"/>
<rect x="47.725" y="77.975" width="12.375" height="1.65" rx="0.824999" fill="white"/>
<rect x="44.425" y="40.85" width="18.15" height="13.1381" fill="#69B7FF"/>
<path d="M57.625 49.0381L55.15 51.5131V53.9881H62.575L57.625 49.0381Z" fill="#67E863"/>
<path d="M51.85 46.5631L44.425 53.9881H58.45L51.85 46.5631Z" fill="#008400"/>
<path d="M51.85 48.2956L51.025 47.3881L51.85 46.5631L54.0495 49.0381L53.6374 49.4506L52.2625 47.8831L51.85 48.2956Z" fill="white"/>
<ellipse cx="56.3875" cy="45.2586" rx="2.0625" ry="2.0625" fill="#FFF500"/>
<path d="M52.0546 66.591C51.7719 66.9296 51.3721 67.1932 50.8554 67.3817C50.3387 67.5668 49.7662 67.6593 49.1377 67.6593C48.4779 67.6593 47.8984 67.5162 47.3991 67.2299C46.9034 66.9401 46.5193 66.5212 46.247 65.973C45.9782 65.4249 45.8403 64.7808 45.8333 64.0406V63.5222C45.8333 62.7611 45.9607 62.103 46.2156 61.5479C46.4739 60.9893 46.844 60.5634 47.3258 60.2701C47.8111 59.9734 48.3784 59.825 49.0278 59.825C49.932 59.825 50.639 60.0415 51.1487 60.4744C51.6584 60.9038 51.9604 61.5305 52.0546 62.3544H50.5255C50.4557 61.918 50.3003 61.5985 50.0594 61.3961C49.822 61.1936 49.4938 61.0923 49.0749 61.0923C48.5407 61.0923 48.134 61.2931 47.8547 61.6946C47.5754 62.096 47.434 62.693 47.4305 63.4855V63.9726C47.4305 64.7721 47.5824 65.376 47.8861 65.7845C48.1899 66.193 48.635 66.3972 49.2215 66.3972C49.8115 66.3972 50.2322 66.2715 50.4836 66.0202V64.7057H49.0539V63.5484H52.0546V66.591Z" fill="black"/>
<path d="M55.003 67.5546H53.4319V59.9297H55.003V67.5546Z" fill="black"/>
<path d="M61.0515 64.4386H58.0351V67.5546H56.464V59.9297H61.4285V61.2023H58.0351V63.1713H61.0515V64.4386Z" fill="black"/>
</g>
<defs>
<clipPath id="clip0">
<path d="M37 26H70V82.925H37V26Z" fill="white"/>
</clipPath>
</defs>
</svg>
