<svg width="24" height="24" viewBox="0 0 24 24" fill="none" xmlns="http://www.w3.org/2000/svg">
<path d="M16.66 6.41L23.14 12.9L16.65 19.38L10.16 12.9L16.66 6.41ZM20.31 12.9L16.65 9.24L13 12.9L16.66 16.56L20.31 12.9ZM4.64001 6.64C6.39001 4.88 8.70001 4 11 4V0.759998L15.24 5L11 9.24V6C9.21001 6 7.42001 6.68 6.05001 8.05C3.32001 10.78 3.32001 15.22 6.05001 17.95C7.42001 19.32 9.21001 20 11 20C11.97 20 12.94 19.79 13.84 19.39L15.33 20.88C13.98 21.62 12.49 22 11 22C8.70001 22 6.39001 21.12 4.64001 19.36C1.12001 15.85 1.12001 10.15 4.64001 6.64Z" fill="black"/>
</svg>
