<svg xmlns="http://www.w3.org/2000/svg" xmlns:xlink="http://www.w3.org/1999/xlink" width="96" height="96" fill="none"><g clip-path="url(#a)"><path fill="#f2eddc" d="M32 21h32v54H32z"/><path fill="#004789" d="M37 32h22v16H37z"/><path d="m53 41.972-3 3.014V48h9l-6-6.028z" fill="#008400"/><path d="M46 38.958 37 48h17l-8-9.042z" fill="#060"/><path d="m46 41.068-1-1.105 1-1.005 2.666 3.014-.499.502-1.667-1.909-.5.502z" fill="#fff"/><use xlink:href="#b" fill="#fff500"/><path d="M39 34.009c0 .555-.448 1.005-1 1.005.552 0 1 .45 1 1.005 0-.555.448-1.005 1-1.005-.552 0-1-.45-1-1.005z" fill="#ff9264"/><path d="M42 37.024c0 .555-.448 1.005-1 1.005.552 0 1 .45 1 1.005 0-.555.448-1.005 1-1.005-.552 0-1-.45-1-1.005zm7-1.005c0 .555-.448 1.005-1 1.005.552 0 1 .45 1 1.005 0-.555.448-1.005 1-1.005-.552 0-1-.45-1-1.005z" fill="#fff"/><ellipse cx="53.5" cy="36.521" rx="2.5" ry="2.512" fill="#00095e"/><path d="M52.039 34.451A2.51 2.51 0 0 0 51 36.49a2.506 2.506 0 0 0 2.5 2.512 2.48 2.48 0 0 0 1.061-.237A4.02 4.02 0 0 1 52 35.014a4.08 4.08 0 0 1 .039-.563z" fill="#fff"/><path d="M45.749 64.204c-.352.411-.85.73-1.494.959s-1.357.337-2.139.337c-.822 0-1.544-.174-2.166-.521s-1.096-.859-1.435-1.524-.507-1.446-.515-2.343v-.629c0-.923.159-1.721.476-2.394s.783-1.194 1.383-1.549 1.311-.54 2.12-.54c1.126 0 2.007.263 2.642.787s1.011 1.281 1.128 2.28h-1.905c-.087-.529-.281-.917-.581-1.162s-.705-.368-1.226-.368c-.665 0-1.172.243-1.52.73s-.524 1.211-.528 2.172v.591c0 .969.189 1.702.567 2.197s.933.743 1.663.743 1.259-.152 1.572-.457v-1.594H42.01v-1.403h3.738v3.689zm3.672 1.169h-1.957v-9.246h1.957v9.246zm7.534-3.778h-3.757v3.778h-1.957v-9.246h6.184v1.543h-4.227v2.388h3.757v1.537z" fill="#000"/><path d="M40 76h17v4H40zm-5-60h22v4H35z" fill="#f2eddc"/><path fill-rule="evenodd" d="M60 82c5 0 8-3 8-8V22c0-5-3-8-8-8H36c-5 0-8 3.375-8 7.575V74c0 5 3 8 8 8h24zm-27-8h30V22H33v52zm4-55a1 1 0 1 0 0-2 1 1 0 1 0 0 2zm4-1a1 1 0 0 1 1-1h13a1 1 0 1 1 0 2H42a1 1 0 0 1-1-1zm1 59a1 1 0 1 0 0 2h13a1 1 0 1 0 0-2H42z" fill="#000"/></g><defs><clipPath id="a"><path fill="#fff" transform="translate(28 14)" d="M0 0h40v68H0z"/></clipPath><path id="b" d="M45 34.009c0 .555-.448 1.005-1 1.005.552 0 1 .45 1 1.005 0-.555.448-1.005 1-1.005-.552 0-1-.45-1-1.005z"/></defs></svg>