<svg width="24" height="24" viewBox="0 0 24 24" fill="none" xmlns="http://www.w3.org/2000/svg">
<path fill-rule="evenodd" clip-rule="evenodd" d="M3 3L1.58578 4.41421L4.38028 7.2087C3.5059 8.59617 3 10.2391 3 12C3 16.97 7.03 21 12 21C12.83 21 13.5 20.33 13.5 19.5C13.5 19.11 13.35 18.76 13.11 18.49C12.88 18.23 12.73 17.88 12.73 17.5C12.73 16.9717 13.0014 16.5083 13.4127 16.2411L18.5858 21.4142L20 20L3 3ZM6.20118 9.02961L7.97039 10.7988C7.83231 11.4851 7.22764 12 6.5 12C5.67 12 5 11.33 5 10.5C5 9.77236 5.51494 9.16768 6.20118 9.02961Z" fill="black"/>
<path fill-rule="evenodd" clip-rule="evenodd" d="M21 11C21 12.9392 19.8942 14.6216 18.2793 15.4509L10.472 7.64357C10.7953 7.36869 11 6.95879 11 6.5C11 5.67 10.33 5 9.5 5C9.04121 5 8.63131 5.20471 8.35643 5.528L7.2087 4.38028C8.59617 3.5059 10.2391 3 12 3C16.97 3 21 6.58 21 11ZM14.5 8C13.67 8 13 7.33 13 6.5C13 5.67 13.67 5 14.5 5C15.33 5 16 5.67 16 6.5C16 7.33 15.33 8 14.5 8ZM17.5 12C16.67 12 16 11.33 16 10.5C16 9.67 16.67 9 17.5 9C18.33 9 19 9.67 19 10.5C19 11.33 18.33 12 17.5 12Z" fill="black"/>
</svg>
