<svg width="108" height="108" fill="none" xmlns="http://www.w3.org/2000/svg"><g clip-path="url(#a)"><path fill="#fff" d="M47.6 76.235h13.6v3.176H47.6zM43.6 28.588h17.6v3.176H43.6z"/><path fill-rule="evenodd" clip-rule="evenodd" d="M63.6 81c4 0 6.4-2.382 6.4-6.353V33.353C70 29.383 67.6 27 63.6 27H44.4c-4 0-6.4 2.68-6.4 6.015v41.632C38 78.617 40.4 81 44.4 81H63.6ZM42 74.647h24V33.353H42v41.294Zm3.2-43.676c.442 0 .8-.356.8-.794a.797.797 0 0 0-.8-.795c-.442 0-.8.356-.8.794 0 .439.358.795.8.795Zm3.2-.794c0-.44.358-.795.8-.795h10.4c.442 0 .8.356.8.794a.797.797 0 0 1-.8.795H49.2a.797.797 0 0 1-.8-.794Zm.8 46.852c-.442 0-.8.356-.8.794 0 .44.358.795.8.795h10.4c.442 0 .8-.356.8-.794a.797.797 0 0 0-.8-.795H49.2Z" fill="#000"/><path fill="#fff" d="M42 33.353h24v41.294H42z"/><g clip-path="url(#b)"><path fill="#69B7FF" d="M45.2 41.294h17.6V53.94H45.2z"/><path d="m58 49.176-2.4 2.382v2.382h7.2L58 49.176Z" fill="#67E863"/><path d="m52.4 46.793-7.2 7.147h13.6l-6.4-7.147Z" fill="#008400"/><path d="m52.4 48.461-.8-.873.8-.795 2.133 2.383-.4.397-1.333-1.509-.4.397Z" fill="#fff"/><ellipse cx="58.4" cy="44.868" rx="2" ry="1.985" fill="#FFF500"/></g><path d="M52.598 66.072c-.274.325-.661.58-1.163.76a4.944 4.944 0 0 1-1.665.268c-.64 0-1.202-.138-1.686-.413a2.818 2.818 0 0 1-1.117-1.21c-.26-.528-.395-1.148-.401-1.86v-.5c0-.732.123-1.365.37-1.9.25-.537.61-.947 1.077-1.23.47-.285 1.02-.428 1.65-.428.877 0 1.563.208 2.057.625.494.413.787 1.016.878 1.81h-1.482c-.068-.42-.219-.728-.452-.923-.23-.195-.549-.292-.955-.292-.518 0-.912.193-1.183.58-.271.386-.408.96-.412 1.723v.47c0 .769.148 1.35.442 1.743.295.393.726.59 1.295.59.572 0 .98-.121 1.224-.363v-1.265h-1.386v-1.114h2.91v2.928ZM55.457 66.999h-1.523v-7.34h1.523V67ZM61.323 64h-2.925v2.999h-1.524v-7.34h4.814v1.226h-3.29v1.895h2.925V64Z" fill="#000"/></g><defs><clipPath id="a"><path fill="#fff" transform="translate(38 27)" d="M0 0h32v54H0z"/></clipPath><clipPath id="b"><path fill="#fff" transform="translate(45.2 41.294)" d="M0 0h17.6v12.646H0z"/></clipPath></defs></svg>