<svg width="108" height="108" viewBox="0 0 108 108" fill="none" xmlns="http://www.w3.org/2000/svg">
<g clip-path="url(#clip0)">
<path d="M66.875 32.5994H42.125V75.4957H66.875V32.5994Z" fill="white"/>
<path fill-rule="evenodd" clip-rule="evenodd" d="M71 75.31C71 79.5997 68.525 82.1569 64.235 82.2394C62.0625 82.2394 59.89 82.2486 57.7175 82.2578C53.3725 82.2761 49.0275 82.2944 44.6825 82.2394C40.64 82.2394 38.0825 79.6822 38 75.7225V32.2488C38 28.7841 40.805 26.1444 44.5175 26.0619C51.035 25.9794 57.5525 25.9794 64.07 26.0619C68.4425 26.1444 70.9175 28.7016 71 33.0738V75.31ZM66.875 75.4957H42.125V32.5994H66.875V75.4957Z" fill="black"/>
<ellipse cx="45.425" cy="29.2997" rx="0.825" ry="0.824928" fill="white"/>
<rect x="48.725" y="28.4748" width="12.375" height="1.64986" rx="0.824928" fill="white"/>
<rect x="48.725" y="77.9704" width="12.375" height="1.64985" rx="0.824926" fill="white"/>
<g clip-path="url(#clip1)">
<rect x="45.425" y="40.8487" width="18.15" height="13.137" fill="#69B7FF"/>
<path d="M58.625 49.0361L56.15 51.5109V53.9857H63.575L58.625 49.0361Z" fill="#67E863"/>
<path d="M52.85 46.5613L45.425 53.9857H59.45L52.85 46.5613Z" fill="#008400"/>
<path d="M52.85 48.2937L52.025 47.3863L52.85 46.5613L55.0494 49.0361L54.6374 49.4486L53.2625 47.8812L52.85 48.2937Z" fill="white"/>
<ellipse cx="59.0375" cy="44.5609" rx="2.0625" ry="2.06232" fill="#FFF500"/>
</g>
<path d="M53.0546 66.5874C52.7719 66.926 52.3721 67.1896 51.8554 67.3781C51.3387 67.5631 50.7662 67.6556 50.1377 67.6556C49.4779 67.6556 48.8984 67.5125 48.3991 67.2262C47.9034 66.9365 47.5193 66.5176 47.247 65.9695C46.9782 65.4214 46.8403 64.7774 46.8333 64.0373V63.5189C46.8333 62.7579 46.9607 62.0998 47.2156 61.5448C47.4739 60.9862 47.844 60.5603 48.3258 60.2671C48.8111 59.9704 49.3784 59.822 50.0278 59.822C50.932 59.822 51.639 60.0385 52.1487 60.4713C52.6584 60.9007 52.9604 61.5273 53.0546 62.3512H51.5255C51.4557 61.9148 51.3003 61.5954 51.0594 61.3929C50.822 61.1905 50.4938 61.0892 50.0749 61.0892C49.5407 61.0892 49.134 61.2899 48.8547 61.6914C48.5754 62.0929 48.434 62.6898 48.4305 63.4822V63.9692C48.4305 64.7686 48.5824 65.3726 48.8861 65.781C49.1899 66.1894 49.635 66.3937 50.2215 66.3937C50.8115 66.3937 51.2322 66.268 51.4836 66.0166V64.7023H50.0539V63.5451H53.0546V66.5874Z" fill="black"/>
<path d="M56.003 67.5509H54.4319V59.9267H56.003V67.5509Z" fill="black"/>
<path d="M62.0515 64.4353H59.0351V67.5509H57.464V59.9267H62.4285V61.1992H59.0351V63.1681H62.0515V64.4353Z" fill="black"/>
</g>
<defs>
<clipPath id="clip0">
<path d="M38 26H71V82.92H38V26Z" fill="white"/>
</clipPath>
<clipPath id="clip1">
<rect x="45.425" y="40.8487" width="18.15" height="13.137" fill="white"/>
</clipPath>
</defs>
</svg>
